<?xml version="1.0" encoding="UTF-8"?>
<svg width="512" height="512" viewBox="0 0 512 512" xmlns="http://www.w3.org/2000/svg">
  <defs>
    <linearGradient id="grad1" x1="0%" y1="0%" x2="100%" y2="100%">
      <stop offset="0%" style="stop-color:#1A1A1A;stop-opacity:1" />
      <stop offset="100%" style="stop-color:#333333;stop-opacity:1" />
    </linearGradient>
    <linearGradient id="grad2" x1="0%" y1="0%" x2="100%" y2="100%">
      <stop offset="0%" style="stop-color:#4ADE80;stop-opacity:1" />
      <stop offset="100%" style="stop-color:#22C55E;stop-opacity:1" />
    </linearGradient>
    <filter id="neon">
      <feGaussianBlur stdDeviation="2" result="blur" />
      <feFlood flood-color="#4ADE80" flood-opacity="0.5" />
      <feComposite in2="blur" operator="in" />
      <feComposite in="SourceGraphic" />
    </filter>
  </defs>
  
  <!-- Main background -->
  <rect width="512" height="512" rx="128" fill="url(#grad1)"/>
  
  <!-- Modern chat bubble design -->
  <g transform="translate(96, 128)" filter="url(#neon)">
    <!-- Left chat bubble -->
    <path d="M60 0h180c33.137 0 60 26.863 60 60v60c0 33.137-26.863 60-60 60h-30l-30 45-30-45H60c-33.137 0-60-26.863-60-60V60C0 26.863 26.863 0 60 0z" 
          fill="#333333" stroke="#4ADE80" stroke-width="4"/>
    
    <!-- Right chat bubble -->
    <path d="M140 128h180c33.137 0 60 26.863 60 60v60c0 33.137-26.863 60-60 60h-90l-30 45-30-45h-30c-33.137 0-60-26.863-60-60v-60c0-33.137 26.863-60 60-60z" 
          fill="#1A1A1A" stroke="#4ADE80" stroke-width="4"/>
          
    <!-- Dots animation -->
    <circle cx="120" cy="60" r="10" fill="url(#grad2)"/>
    <circle cx="160" cy="60" r="10" fill="url(#grad2)"/>
    <circle cx="200" cy="60" r="10" fill="url(#grad2)"/>
  </g>
</svg>
